<svg xmlns="http://www.w3.org/2000/svg" viewBox="-1 -1 34 37">
  <defs>
    <linearGradient id="a">
      <stop offset="0" stop-color="#0ea1c0"/>
      <stop offset="1" stop-color="#02358c"/>
    </linearGradient>
    <linearGradient id="b" x1="-1528.2" x2="-1496.6" y1="130.2" y2="165.3" gradientTransform="translate(-1.3)" gradientUnits="userSpaceOnUse" href="#a"/>
  </defs>
  <path fill="url(#b)" d="M-1513.6 130.2c-3.5-.2-6.9 4-2.1 10.2l1.6-1.2c-5.6-7.5 2.8-9.5 3-3.8 0 3.3-3.8 6-7.4 7.6l-.1-.6c-.6-1.9-1.5-3.7-3.5-4.8q-2.3-1.2-4.3-.6c-5 1.5-4.6 10 5.3 8.8l-.2-2c-9.4 1-6.8-7.2-1.9-4.5 3 1.7 3.4 6.2 3 10.2l-.6-.2c-2-.5-4-.6-6 .6a6 6 0 0 0-2.6 3.4c-1.1 5 6.5 9 10.3-.2l-1.8-.8c-3.8 8.7-9.7 2.3-4.8-.6 2.8-1.7 7 .2 10.2 2.5l-.4.4a8 8 0 0 0-2.5 5.5q.1 2.5 1.7 4c3.8 3.5 11-1 5-9q-.2 0-1.6 1.2c5.5 7.5-2.9 9.5-3 3.8 0-3.4 3.7-6 7.3-7.6l.2.5q.6 3.1 3.4 4.9 2.3 1.2 4.3.6c5-1.6 4.6-10.1-5.3-8.8l.3 2c9.3-1.1 6.8 7.2 1.8 4.4-3-1.6-3.4-6.2-3-10.1l.6.1c2 .5 4 .6 6-.5a6 6 0 0 0 2.6-3.4c1.1-5.1-6.4-9-10.3.2l1.9.7c3.7-8.6 9.6-2.3 4.8.7-3 1.7-7-.2-10.3-2.6l.4-.4q2.3-2 2.5-5.4-.1-2.6-1.7-4a4 4 0 0 0-2.8-1.2m0 12.4c.3.3 2 1.6 4.4 2.6a19 19 0 0 0-.1 5.2c-.5.2-2.5 1-4.5 2.5-.4-.3-2.2-1.6-4.4-2.7 0-.4.3-2.6 0-5.1.5-.2 2.5-1 4.5-2.5" color="#000" style="-inkscape-stroke:none" transform="translate(1529.5 -130.2)"/>
</svg>
