<?xml version="1.0" encoding="UTF-8"?><svg xmlns="http://www.w3.org/2000/svg" xmlns:xlink="http://www.w3.org/1999/xlink" viewBox="0 0 24.8 42.52"><defs><style>.f{fill:url(#e);}.g{fill:url(#d);}</style><linearGradient id="d" x1="21.65" y1="4.23" x2="-3.42" y2="57.05" gradientTransform="matrix(1, 0, 0, 1, 0, 0)" gradientUnits="userSpaceOnUse"><stop offset="0" stop-color="#fec663"/><stop offset="1" stop-color="#eb5142"/></linearGradient><linearGradient id="e" x1="9.45" y1="49.39" x2="24.81" y2="9.2" gradientTransform="matrix(1, 0, 0, 1, 0, 0)" gradientUnits="userSpaceOnUse"><stop offset="0" stop-color="#711f11"/><stop offset=".28" stop-color="#711f11"/><stop offset=".29" stop-color="#732012"/><stop offset=".34" stop-color="#943420"/><stop offset=".39" stop-color="#af452b"/><stop offset=".45" stop-color="#c65335"/><stop offset=".52" stop-color="#d75d3c"/><stop offset=".6" stop-color="#e36542"/><stop offset=".71" stop-color="#eb6945"/><stop offset="1" stop-color="#ed6b46"/><stop offset="1" stop-color="#ed6b46"/></linearGradient></defs><g id="a"/><g id="b"><g id="c"><g><path class="g" d="M7.24,40.26l-1.01-1.33s.06,.04,.09,.07c-1.66-2,.27-5.61,.27-5.61l7.87-16.33S18.21,7.12,10.3,0c0,0,1.4,5.24-2.15,12.27L3.3,21.8s-9.12,13.76,2.94,19.57c0,0,6.2,3.43,11.85-1.52-.03,.01-.06,.03-.1,.04-1.45,1.43-7.1,3.99-10.76,.37Z"/><path class="f" d="M19.62,9.47s3.04,6.82-1.62,16.17l-5.81,11.94s-1.58,2.99-4.14,2.54c-.76-.14-1.42-.87-1.71-1.11-.04-.03,.64,.88,.62,.87l.3,.4c3.66,3.63,9.32,1.07,10.76-.37,.02-.02,.04-.04,.06-.06,1.55-1.36,3.07-3.36,4.4-6.23,6.33-13.69-2.22-22.84-2.86-24.15Z"/></g></g></g></svg>